<svg width="172" height="103" viewBox="0 0 172 103" fill="none" xmlns="http://www.w3.org/2000/svg">
<path d="M71.712 16.9703C72.472 17.3295 72.9721 17.9483 73.3627 18.6651C73.8833 19.6218 74.4434 20.5633 74.8934 21.5504C75.3152 22.4783 75.1214 22.9354 74.1668 23.2892C71.8724 24.1373 69.5506 24.911 67.2508 25.7463C60.7227 28.1278 54.3598 30.9388 48.2037 34.1608C43.3559 36.6877 38.6462 39.4487 34.0745 42.4439C33.8556 42.6072 33.905 42.5297 33.7568 42.4705C34.6582 41.7985 35.5565 41.1227 36.4602 40.4538C41.1136 37.0081 45.739 33.5237 50.432 30.135C53.1239 28.1927 55.904 26.3727 58.6871 24.5564C62.2713 22.2155 65.8904 19.9248 69.5065 17.6332C69.9427 17.3561 70.4489 17.189 70.9231 16.9703H71.712Z" fill="black"/>
<path d="M123.368 45.1682C124.688 43.5137 126.028 41.8706 127.255 40.1485C129.212 37.4014 127.757 33.3005 124.257 32.9664C122.64 32.8145 120.474 32.9375 118.847 33.0879C114.294 33.5085 109.879 33.9808 105.353 34.6064C100.156 35.3232 93.92 36.3331 88.7588 37.2776C79.3599 38.9997 70.8494 40.6907 61.4664 42.5016C53.7084 43.9989 46.1486 45.5805 38.576 47.5182C37.132 47.888 35.7047 48.2821 34.2843 48.7331C34.1498 48.7749 34.0152 48.8349 33.8784 48.866C33.845 48.803 33.8116 48.7415 33.7774 48.68C35.3779 47.9412 37.0454 47.3823 38.6756 46.7111C45.91 43.7278 53.3436 41.4317 60.9139 39.5236C73.0078 36.4743 85.2339 34.078 97.5459 32.0962C107.701 30.4622 117.896 29.1251 128.163 28.4326C131.127 28.2322 134.111 28.2139 137.082 28.053C139.058 27.9429 140.519 29.8935 140.183 31.9565C139.822 34.1736 138.315 35.4667 136.769 36.7332C133.474 39.4333 130.119 42.0597 126.774 44.699C126.279 45.09 125.75 45.437 125.196 45.806C125.12 45.8571 125.055 45.9227 125.005 45.9991C124.954 46.0756 124.919 46.1613 124.903 46.2513C124.886 46.3413 124.887 46.4337 124.906 46.5232C124.925 46.6127 124.962 46.6975 125.015 46.7726C125.368 47.2821 125.715 47.7848 126.099 48.2586C126.447 48.6883 126.294 48.8766 125.871 48.9996C125.62 49.0725 125.361 49.1121 125.1 49.1173C119.763 49.2213 114.426 49.3049 109.089 49.421C101.39 49.585 93.692 49.7331 85.9947 49.9594C81.0326 50.1059 76.0729 50.3489 71.1154 50.6033C64.9358 50.9214 58.7578 51.2866 52.5805 51.6511C47.6261 51.9434 39.3132 52.6086 34.3595 52.9168C33.9248 52.9442 34.1156 52.9206 34.0753 52.6055C37.0134 52.1985 42.2833 51.7536 45.2237 51.3557C48.38 50.926 51.5393 50.4939 54.7024 50.0983C57.8458 49.7043 60.9922 49.3261 64.1424 48.989C67.9424 48.581 71.747 48.2014 75.5561 47.8501C78.2982 47.5942 81.0433 47.3785 83.7899 47.1788C88.2382 46.8554 92.6865 46.5296 97.1378 46.2624C100.958 46.0346 104.782 45.8592 108.606 45.7066C112.605 45.5471 116.606 45.434 120.607 45.3269" fill="black"/>
<path d="M33.6786 45.4727C35.2267 44.5798 36.7573 43.6542 38.3267 42.7992C42.3547 40.6064 46.3417 38.3293 50.448 36.2928C58.4477 32.3233 66.7781 29.1593 75.3167 26.5458C77.8026 25.7865 80.3129 25.1031 82.8126 24.3879C82.938 24.3514 83.0664 24.3226 83.1926 24.2937C85.0128 23.8791 85.9286 24.3499 86.6886 26.0576C87.023 26.8169 87.3726 27.564 87.7526 28.3013C88.1918 29.1676 88.0208 29.5875 87.0579 29.8199C82.488 30.9117 77.9204 32.0157 73.3445 33.0795C63.8376 35.2906 54.5314 38.1577 45.3567 41.4735C41.499 42.8676 37.6245 44.2146 33.7568 45.5828L33.6846 45.475" fill="black"/>
<path d="M33.3464 58.9434C34.3624 58.932 35.365 59.1745 36.2633 59.6488C37.1295 60.0914 37.8615 60.7572 38.3837 61.5774C38.8917 62.3713 39.1607 63.2942 39.1588 64.2365C39.157 65.1787 38.8842 66.1006 38.3731 66.8924C37.854 67.7082 37.1254 68.37 36.2633 68.8089C35.3631 69.2769 34.3612 69.5158 33.3464 69.5044H22.3736V74.3016H18.1776V58.9434H33.3464ZM22.3736 66.105H32.952C33.56 66.0833 34.0537 65.9079 34.4332 65.5788C34.6218 65.4098 34.7715 65.2021 34.8721 64.9698C34.9727 64.7376 35.0218 64.4864 35.0162 64.2334C35.0162 63.673 34.8218 63.2248 34.4332 62.8887C34.0537 62.5298 33.56 62.3541 32.952 62.3617H22.3736V66.105Z" fill="black"/>
<path d="M63.8376 58.9434V62.3617H49.0503V64.8727H61.8624V68.2348H49.0503V70.881H63.8376V74.2993H44.8544V58.9434H63.8376Z" fill="black"/>
<path d="M82.7951 58.9434L92.5558 74.2993H88.0345L85.9141 70.9364H75.512L73.3688 74.2993H68.8597L78.6212 58.9434H82.7951ZM77.5777 67.6859H83.8386L80.7226 62.7505L77.5777 67.6859Z" fill="black"/>
<path d="M112.668 58.9434C114.157 58.9434 115.429 59.4215 116.484 60.3777C117.538 61.3339 118.066 62.4885 118.065 63.8416C118.065 65.0888 117.609 66.1721 116.697 67.0913C115.785 67.9888 114.648 68.5158 113.287 68.6722L118.29 74.2993H113.411L108.788 68.7276H101.775V74.2993H97.5794V58.9434H112.668ZM101.775 65.3435L112.263 65.3548C112.757 65.3548 113.149 65.2126 113.441 64.9281C113.592 64.7935 113.712 64.6273 113.791 64.4414C113.871 64.2554 113.908 64.0543 113.901 63.8522C113.908 63.4042 113.754 63.0456 113.441 62.7763C113.149 62.4776 112.757 62.3394 112.263 62.3617H101.775V65.3435Z" fill="black"/>
<path d="M123.986 74.2993V58.9426H128.182V70.8802H142.172V74.2993H123.986Z" fill="black"/>
<path d="M155.206 58.9434V74.2993H151.01V63.1013L147.869 64.3344V60.7361L152.48 58.9434H155.206Z" fill="black"/>
<path d="M27.5058 83.3471V78.9994H28.6937V82.3797H32.6548V83.3471H27.5058Z" fill="black"/>
<path d="M36.3667 78.9994V81.8718C36.3664 81.9401 36.3807 82.0076 36.4086 82.0699C36.4365 82.1323 36.4774 82.1879 36.5286 82.2332C36.6383 82.3291 36.7795 82.3812 36.9253 82.3797H39.3489C39.4952 82.3774 39.6359 82.3236 39.7464 82.2279C39.7973 82.183 39.838 82.1279 39.8659 82.0661C39.8938 82.0043 39.9083 81.9373 39.9083 81.8695V78.9994H41.0962V82.0783C41.0986 82.2486 41.0634 82.4172 40.9931 82.5724C40.9228 82.7275 40.8192 82.8652 40.6896 82.9758C40.4207 83.2225 40.0666 83.3556 39.7016 83.3471H36.5757C36.2109 83.3546 35.8571 83.2217 35.5877 82.9758C35.4589 82.8646 35.3558 82.7267 35.2856 82.5717C35.2154 82.4168 35.1797 82.2484 35.1811 82.0783V78.9994H36.3667Z" fill="black"/>
<path d="M45.4966 78.9994L47.2978 80.4686L49.1081 78.9994H50.9374L48.2318 81.0844L51.173 83.3471H49.3498L47.2978 81.7002L45.2549 83.3471H43.4316L46.3736 81.0844L43.6703 78.9994H45.4966Z" fill="black"/>
<path d="M54.6941 78.9994V81.8718C54.6938 81.9401 54.7081 82.0076 54.736 82.0699C54.7639 82.1323 54.8048 82.1879 54.856 82.2332C54.9657 82.3291 55.1069 82.3812 55.2527 82.3797H57.6763C57.8226 82.3774 57.9633 82.3236 58.0738 82.2279C58.1248 82.1831 58.1656 82.128 58.1935 82.0662C58.2214 82.0044 58.2358 81.9373 58.2357 81.8695V78.9994H59.4236V82.0783C59.4263 82.2483 59.3916 82.4169 59.3219 82.572C59.2521 82.7271 59.1491 82.8649 59.02 82.9758C58.7511 83.2225 58.397 83.3556 58.032 83.3471H54.9038C54.5377 83.3555 54.1824 83.2225 53.912 82.9758C53.7832 82.8646 53.6802 82.7267 53.6099 82.5717C53.5397 82.4168 53.5041 82.2484 53.5054 82.0783V78.9994H54.6941Z" fill="black"/>
<path d="M66.2225 78.9994C66.6219 78.9908 67.0092 79.1363 67.304 79.4056C67.4454 79.5268 67.5586 79.6773 67.6357 79.8468C67.7127 80.0163 67.7518 80.2005 67.7501 80.3866C67.7514 80.5583 67.7177 80.7284 67.6511 80.8866C67.5845 81.0448 67.4863 81.1878 67.3625 81.3069C67.1012 81.5617 66.7602 81.7193 66.3966 81.7533L67.814 83.3479H66.4315L65.1236 81.7708H63.1384V83.3479H61.9498V78.9994H66.2225ZM63.1384 80.8118H66.1078C66.1686 80.815 66.2295 80.8059 66.2868 80.7852C66.3441 80.7645 66.3967 80.7325 66.4414 80.6911C66.4841 80.6531 66.5179 80.6062 66.5403 80.5537C66.5628 80.5012 66.5734 80.4444 66.5714 80.3874C66.5746 80.3302 66.5645 80.273 66.542 80.2203C66.5194 80.1676 66.485 80.1209 66.4414 80.0837C66.3979 80.0407 66.3454 80.0079 66.2877 79.9876C66.2301 79.9672 66.1686 79.9599 66.1078 79.966H63.1384V80.8118Z" fill="black"/>
<path d="M71.9005 78.9994L73.7458 80.8308L75.591 78.9994H77.3444L74.3393 81.7731V83.3471H73.1514V81.7731L70.1464 78.9994H71.9005Z" fill="black"/>
<path d="M86.3678 78.9994L88.2139 80.8308L90.0592 78.9994H91.8125L88.8074 81.7731V83.3471H87.6196V81.7731L84.6145 78.9994H86.3678Z" fill="black"/>
<path d="M96.944 78.9994L99.7104 83.3478H98.4306L97.8294 82.3957H94.8852L94.2772 83.3478H92.9996L95.7637 79.0001L96.944 78.9994ZM95.4673 81.4747H97.2396L96.3565 80.0783L95.4673 81.4747Z" fill="black"/>
<path d="M106.748 78.9994C107.113 78.9915 107.467 79.1248 107.736 79.3714C107.866 79.482 107.969 79.6197 108.04 79.7748C108.11 79.93 108.145 80.0986 108.143 80.2689V80.5483H106.954V80.4724C106.956 80.4038 106.942 80.3357 106.914 80.2731C106.886 80.2105 106.844 80.1548 106.792 80.1102C106.74 80.0593 106.678 80.0199 106.609 79.9948C106.541 79.9697 106.468 79.9593 106.395 79.9644H103.787C103.64 79.961 103.497 80.0156 103.39 80.1163C103.338 80.1602 103.297 80.2153 103.269 80.2775C103.241 80.3396 103.227 80.4073 103.228 80.4754V81.8718C103.228 81.9403 103.243 82.0081 103.271 82.0705C103.3 82.1329 103.341 82.1884 103.393 82.2332C103.503 82.3279 103.642 82.38 103.787 82.3797H106.395C106.541 82.3774 106.682 82.3236 106.792 82.2279C106.843 82.1831 106.884 82.128 106.912 82.0662C106.94 82.0044 106.954 81.9373 106.954 81.8695V81.8027H108.143V82.076C108.145 82.2467 108.11 82.4158 108.04 82.5713C107.97 82.7269 107.866 82.865 107.736 82.9758C107.467 83.2222 107.113 83.3553 106.748 83.3471H103.44C103.076 83.3548 102.722 83.2218 102.452 82.9758C102.323 82.8647 102.22 82.7269 102.15 82.5719C102.079 82.4169 102.044 82.2485 102.045 82.0783V80.2689C102.044 80.0985 102.08 79.9299 102.151 79.7749C102.221 79.6199 102.325 79.4822 102.455 79.3714C102.724 79.125 103.078 78.9918 103.443 78.9994H106.748Z" fill="black"/>
<path d="M111.86 78.9994V80.6273H115.376V78.9994H116.565V83.3471H115.376V81.5954H111.86V83.3471H110.672V78.9994H111.86Z" fill="black"/>
<path d="M124.783 78.9994V79.9675H122.527V83.3471H121.339V79.9675H119.087V78.9994H124.783Z" fill="black"/>
<path d="M128.493 78.9994H127.305V83.3471H128.493V78.9994Z" fill="black"/>
<path d="M132.205 78.9994L135.966 82.0525V78.9994H137.157V83.3471H135.966L132.205 80.2978V83.3471H131.017V78.9994H132.205Z" fill="black"/>
<path d="M145.725 78.9994V79.9675H141.428C141.355 79.965 141.282 79.9771 141.214 80.0032C141.146 80.0293 141.084 80.0688 141.031 80.1193C140.979 80.1633 140.937 80.2184 140.909 80.2805C140.881 80.3427 140.867 80.4103 140.869 80.4785V81.8748C140.869 81.9431 140.883 82.0107 140.911 82.073C140.939 82.1353 140.98 82.191 141.031 82.2362C141.141 82.3322 141.282 82.3844 141.428 82.3828H144.69V81.7062H143.207V80.7867H145.877V83.3478H141.079C140.714 83.3553 140.36 83.2224 140.091 82.9765C139.962 82.8653 139.859 82.7274 139.789 82.5725C139.718 82.4175 139.683 82.2492 139.684 82.0791V80.2689C139.683 80.0988 139.718 79.9304 139.789 79.7755C139.859 79.6205 139.962 79.4826 140.091 79.3714C140.36 79.1254 140.714 78.9922 141.079 78.9994H145.725Z" fill="black"/>
</svg>
